<svg xmlns="http://www.w3.org/2000/svg" version="1.1" xmlns:xlink="http://www.w3.org/1999/xlink" xmlns:svgjs="http://svgjs.dev/svgjs" width="100%" height="100%" viewBox="0 0 1000 600"><rect width="1000" height="600" x="0" y="0" fill="#f9d342"/><g><circle r="166.66666666666666" cx="400.26430765787757" cy="422.4865126905951" fill="#292826" transform="matrix(0.535108248374883,0,0,0.535108248374883,0,73.92399530492001)"/><path d="M450.8900266075192 465.5183692737075L450.8900266075192 465.5183692737075Q452.5396283752704 465.5183692737075 453.87637463534463 466.8551155337817L453.87637463534463 466.8551155337817L461.6408795076908 475.35909706063705Q452.65339401442566 485.79709445313165 439.7978767898818 491.62758345983855Q426.942359565338 497.48651387633413 408.8251815298636 497.48651387633413L408.8251815298636 497.48651387633413Q392.95487486770554 497.48651387633413 380.0424748235841 491.9973217870931Q367.15851618925143 486.50812969785204 358.02882364704226 476.6389605011336Q348.92757251462183 466.76979130441526 343.8934429820018 452.9472661470518Q338.88775485917057 439.1247409896883 338.88775485917057 422.51495767302106L338.88775485917057 422.51495767302106Q338.88775485917057 405.9336157661426 344.26318130925637 392.11109060877914Q349.63860775934216 378.28856545141565 359.3655699071165 368.36251343511964Q369.0925320548908 358.4364614188236 382.65908452415493 352.9472693295826Q396.22563699341913 347.48651865013034 412.60788903177587 347.48651865013034L412.60788903177587 347.48651865013034Q428.7910512016109 347.48651865013034 440.50891203460213 352.49220677296154Q452.22677286759347 357.4978948957928 461.35646540980264 366.1156420618034L461.35646540980264 366.1156420618034L454.9002653877419 375.2168931942238Q454.1892301430216 376.2407839466211 453.25066361999075 376.9233777815526Q452.34053850674866 377.5775302066953 450.60561250963104 377.5775302066953L450.60561250963104 377.5775302066953Q449.26886624955677 377.5775302066953 447.78991294053844 376.61052227387563Q446.2825182217314 375.643514341056 444.23473671693677 374.1930024418265Q442.18695521214215 372.77093195238575 439.4281384626272 371.1213301846346Q436.66932171311225 369.5001698266722 432.8866142112 368.0496579274427Q429.1039067092878 366.627587438002 424.0697771766678 365.66057950518234Q419.0640890538366 364.66513016257386 412.4941233926206 364.66513016257386L412.4941233926206 364.66513016257386Q400.7193797400517 364.66513016257386 390.9639761824886 368.73225176237423Q381.1801312151366 372.77093195238575 374.098220177722 380.2510227268438Q367.0447505500962 387.702672091513 363.09139458945106 398.4535249916846Q359.1664800385948 409.2043778918562 359.1664800385948 422.51495767302106L359.1664800385948 422.51495767302106Q359.1664800385948 436.2521586010181 363.09139458945106 447.0030115011897Q367.0447505500962 457.7538644013613 373.84224748962265 465.1770723562417Q380.668185838938 472.6002803111221 389.96852683988004 476.4967534521896Q399.29730925061097 480.36478518346826 410.0481621507826 480.36478518346826L410.0481621507826 480.36478518346826Q416.58968640220974 480.36478518346826 421.8229058033515 479.59686711917027Q427.05612520449324 478.8289490548723 431.49298513154815 477.2077886969099Q435.958286468392 475.55818692915875 439.7978767898818 473.0553428677431Q443.6374671113717 470.5524988063275 447.53394025243915 467.0542054023034L447.53394025243915 467.0542054023034Q449.26886624955677 465.5183692737075 450.8900266075192 465.5183692737075Z " fill="#f9d342" transform="matrix(0.535108248374883,0,0,0.535108248374883,0,73.92399530492001)"/><path d="M699.0332048086271 392.2263063270414L699.0332048086271 392.2263063270414Q710.197166628923 392.2263063270414 719.206679676881 395.94762693380665Q728.2441725790252 399.66894754057193 734.5396397709213 406.52401181619217Q740.8351069628175 413.3790760918124 744.1926894651621 423.08808549442557Q747.5782518216929 432.79709489703873 747.5782518216929 444.80045234292066L747.5782518216929 444.80045234292066Q747.5782518216929 456.88774935136126 744.1926894651621 466.54079904560194Q740.8351069628175 476.2218285940289 734.5396397709213 483.0768928696492Q728.2441725790252 489.9319571452694 719.206679676881 493.59731804366226Q710.197166628923 497.2626789420551 699.0332048086271 497.2626789420551L699.0332048086271 497.2626789420551Q687.841263134145 497.2626789420551 678.8317500861871 493.59731804366226Q669.8222370382291 489.9319571452694 663.4708101379606 483.0768928696492Q657.119383237692 476.2218285940289 653.7058410269749 466.54079904560194Q650.2643189620717 456.88774935136126 650.2643189620717 444.80045234292066L650.2643189620717 444.80045234292066Q650.2643189620717 432.79709489703873 653.7058410269749 423.08808549442557Q657.119383237692 413.3790760918124 663.4708101379606 406.52401181619217Q669.8222370382291 399.66894754057193 678.8317500861871 395.94762693380665Q687.841263134145 392.2263063270414 699.0332048086271 392.2263063270414ZM699.0332048086271 483.27275184895257L699.0332048086271 483.27275184895257Q714.1423260691779 483.27275184895257 721.5849672827084 473.1440446335464Q729.0276084962389 463.0153374181402 729.0276084962389 444.8843919054793L729.0276084962389 444.8843919054793Q729.0276084962389 426.6695068302598 721.5849672827084 416.48483990648117Q714.1423260691779 406.32815283688876 699.0332048086271 406.32815283688876L699.0332048086271 406.32815283688876Q691.366724761607 406.32815283688876 685.7147942159936 408.9302792762058Q680.0908435245663 411.56038556970907 676.3135632094286 416.48483990648117Q672.5362828942909 421.43727409743946 670.6616326638152 428.62809662329414Q668.8149622875258 435.8189191491489 668.8149622875258 444.8843919054793L668.8149622875258 444.8843919054793Q668.8149622875258 453.9498646618097 670.6616326638152 461.1127073334782Q672.5362828942909 468.27555000514667 676.3135632094286 473.1440446335464Q680.0908435245663 478.04051911613226 685.7147942159936 480.64264555544935Q691.366724761607 483.27275184895257 699.0332048086271 483.27275184895257ZM771.752845838574 393.8211580156551L789.6879323719314 393.8211580156551L789.6879323719314 495.86368623274484L771.752845838574 495.86368623274484L771.752845838574 393.8211580156551ZM793.7170313747449 361.7842249724503L793.7170313747449 361.7842249724503Q793.7170313747449 364.4143312659536 792.6537969156692 366.6806994550362Q791.5905624565935 368.9470676441188 789.8278316428625 370.70979845784973Q788.0651008291316 372.47252927158064 785.7427729316765 373.479804022284Q783.4204450342215 374.4870787729874 780.8183185949044 374.4870787729874L780.8183185949044 374.4870787729874Q778.1882123014012 374.4870787729874 775.9218441123186 373.479804022284Q773.6554759232359 372.47252927158064 771.8927451095051 370.70979845784973Q770.1300142957741 368.9470676441188 769.1227395450708 366.6806994550362Q768.1154647943674 364.4143312659536 768.1154647943674 361.7842249724503L768.1154647943674 361.7842249724503Q768.1154647943674 359.1820985331332 769.1227395450708 356.80381092730585Q770.1300142957741 354.4535031756646 771.8927451095051 352.6907723619337Q773.6554759232359 350.92804154820277 775.9218441123186 349.9207667974994Q778.1882123014012 348.91349204679597 780.8183185949044 348.91349204679597L780.8183185949044 348.91349204679597Q783.4204450342215 348.91349204679597 785.7427729316765 349.9207667974994Q788.0651008291316 350.92804154820277 789.8278316428625 352.6907723619337Q791.5905624565935 354.4535031756646 792.6537969156692 356.80381092730585Q793.7170313747449 359.1820985331332 793.7170313747449 361.7842249724503ZM839.2402541357005 495.86368623274484L821.3051676023431 495.86368623274484L821.3051676023431 393.8211580156551L831.9934719014735 393.8211580156551Q835.7987320707974 393.8211580156551 836.8060068215008 397.5424786224204L836.8060068215008 397.5424786224204L838.2329793849972 408.62250088015753Q844.8642048271278 401.29177908337186 853.0902819578721 396.75904270520664Q861.2883792344302 392.2263063270414 872.0606230961191 392.2263063270414L872.0606230961191 392.2263063270414Q880.4265994977944 392.2263063270414 886.8339861064353 394.9963118914757Q893.21339286089 397.76631745591 897.4943105513795 402.8306710636131Q901.7752282418688 407.92300452550245 904.0136165767653 415.0858471971709Q906.2240250574755 422.2207100146532 906.2240250574755 430.8944648123768L906.2240250574755 430.8944648123768L906.2240250574755 495.86368623274484L888.2889385241181 495.86368623274484L888.2889385241181 430.8944648123768Q888.2889385241181 419.31080517928785 883.0007460829253 412.9034185706469Q877.7125536417325 406.52401181619217 866.8283903632987 406.52401181619217L866.8283903632987 406.52401181619217Q858.8821117744166 406.52401181619217 851.9710877904239 410.35725183970226Q845.0880436606175 414.16251200902616 839.2402541357005 420.70979788859813L839.2402541357005 420.70979788859813L839.2402541357005 495.86368623274484ZM945.5077403349073 495.86368623274484L933.9240807018184 495.86368623274484L933.9240807018184 347.48651948329956L951.9431067977345 347.48651948329956L951.9431067977345 408.5385613175989Q958.2945336980031 401.179859666627 966.492630974561 396.7030829968342Q974.7187081053054 392.2263063270414 985.2950929876909 392.2263063270414L985.2950929876909 392.2263063270414Q994.164706764718 392.2263063270414 1001.2995695822002 395.5279291210136Q1008.4624122538687 398.857531769172 1013.4987860073855 405.4607773571164Q1018.5351597609025 412.06402294506074 1021.2492056169644 421.77303234767396Q1023.9632514730263 431.5100216044733 1023.9632514730263 444.1848955508242L1023.9632514730263 444.1848955508242Q1023.9632514730263 455.4607767878648 1020.9414272209161 465.19776604466415Q1017.919602968806 474.9067754472773 1012.2396925690064 482.0136584105734Q1006.5318023150205 489.1205413738695 998.3337050384624 493.2056000850554Q990.1356077619043 497.2626789420551 979.839021421381 497.2626789420551L979.839021421381 497.2626789420551Q969.9901127478367 497.2626789420551 963.0790887638441 493.4574187727312Q956.1680647798514 489.6241787492212 951.047751463776 482.7691144736009L951.047751463776 482.7691144736009L950.1244162756311 492.0304462092348Q949.3409803584175 495.86368623274484 945.5077403349073 495.86368623274484L945.5077403349073 495.86368623274484ZM979.447303462774 406.52401181619217L979.447303462774 406.52401181619217Q970.6896091024919 406.52401181619217 964.0863635145474 410.5531108190057Q957.4831179266031 414.5822098218192 951.9431067977345 421.94091147279113L951.9431067977345 421.94091147279113L951.9431067977345 471.2973742572568Q956.7836215719481 477.92859969938746 962.6873708052373 480.64264555544935Q968.5631401843402 483.3846712656974 975.8099224185673 483.3846712656974L975.8099224185673 483.3846712656974Q990.1356077619043 483.3846712656974 997.7741079547384 473.20000434191877Q1005.4405880017586 463.0153374181402 1005.4405880017586 444.1848955508242L1005.4405880017586 444.1848955508242Q1005.4405880017586 434.22406746053514 1003.6778571880277 427.0612247888667Q1001.9151263742967 419.9263619713844 998.5855237261383 415.3376658848468Q995.2559210779799 410.74896979830913 990.4154063037664 408.62250088015753Q985.6028713837392 406.52401181619217 979.447303462774 406.52401181619217ZM1120.8574865198543 430.5866864163285L1120.8574865198543 495.86368623274484L1112.911207930972 495.86368623274484Q1110.2811016374687 495.86368623274484 1108.6862499488552 495.05227046134496Q1107.0634184060552 494.24085468994497 1106.5597810307036 491.6387282506279L1106.5597810307036 491.6387282506279L1104.5452315292969 482.15355768150437Q1100.5161325264833 485.79093872571104 1096.6828925029731 488.6728637068902Q1092.8776323336492 491.5268088338831 1088.6246944973461 493.48539862691746Q1084.399736515229 495.471968274138 1079.615181449388 496.47924302484137Q1074.830626383547 497.48651777554477 1068.9828368586302 497.48651777554477L1068.9828368586302 497.48651777554477Q1063.0511077711549 497.48651777554477 1057.8748347467067 495.80772652437247Q1052.6705818680725 494.15691512738636 1048.8373418445626 490.827312479228Q1045.0320816752387 487.4977098310695 1042.765713486156 482.40537636918026Q1040.4993452970734 477.3410227614771 1040.4993452970734 470.3740390691121L1040.4993452970734 470.3740390691121Q1040.4993452970734 464.3303905648918 1043.8009680910457 458.7344197276508Q1047.130570739204 453.166428744596 1054.5452320985482 448.8295513457342Q1061.9319136037066 444.4926739468724 1073.9352710495884 441.7226683824381Q1085.9106486412843 438.9526628180038 1103.230178382545 438.56094485939695L1103.230178382545 438.56094485939695L1103.230178382545 430.5866864163285Q1103.230178382545 418.6952483871914 1098.165824774842 412.6236200287849Q1093.0734913129527 406.52401181619217 1083.0846833684775 406.52401181619217L1083.0846833684775 406.52401181619217Q1076.5373974889055 406.52401181619217 1072.0606208191127 408.1748232131783Q1067.58384414932 409.8536144643506 1064.310201209534 411.8961438199435Q1061.036558269748 413.9666530297227 1058.6582706639206 415.64544428089505Q1056.3079629122792 417.29625567788116 1053.9856350148243 417.29625567788116L1053.9856350148243 417.29625567788116Q1052.1669444927209 417.29625567788116 1050.823911491783 416.34494063555013Q1049.452898636659 415.39362559321916 1048.6414828652591 413.9666530297227L1048.6414828652591 413.9666530297227L1045.4237996338456 408.2307829215507Q1053.8737155980796 400.0606654991788 1063.6666645632513 396.03156649636526Q1073.4316336742368 392.00246749355176 1085.323071703374 392.00246749355176L1085.323071703374 392.00246749355176Q1093.8849070843526 392.00246749355176 1100.5161325264833 394.82843276635845Q1107.1753378228 397.6543980391652 1111.7080742009653 402.6907717926821Q1116.2408105791305 407.727145546199 1118.5631384765854 414.8899882178675Q1120.8574865198543 422.0248510353498 1120.8574865198543 430.5866864163285L1120.8574865198543 430.5866864163285ZM1074.3269890081954 484.8955833917525L1074.3269890081954 484.8955833917525Q1079.055584365664 484.8955833917525 1083.0007438059188 483.91628849523534Q1086.9179233919876 482.96497345290436 1090.387425311077 481.20224263917345Q1093.8849070843526 479.43951182544254 1097.0466306073938 476.92132494868406Q1100.208354130435 474.4031380719256 1103.230178382545 471.185454840512L1103.230178382545 471.185454840512L1103.230178382545 449.9207656589962Q1090.8630828322425 450.3404634717893 1082.189328034519 451.90733530621674Q1073.5155732367955 453.44622728645805 1068.0874815246716 455.9644141632165Q1062.659389812548 458.48260103997495 1060.1691827899756 461.92412310487816Q1057.7069556215895 465.3376653155952 1057.7069556215895 469.56262329771215L1057.7069556215895 469.56262329771215Q1057.7069556215895 473.59172230052565 1059.0220087683413 476.52960699007724Q1060.3370619150928 479.43951182544254 1062.547470395803 481.31416205591825Q1064.7578788765131 483.1608324322078 1067.7797031286234 484.02820791198013Q1070.8015273807334 484.8955833917525 1074.3269890081954 484.8955833917525ZM1210.5049393324553 404.08976450199236L1206.4758403296419 410.63705038156434Q1205.272706599635 412.87543871646074 1202.7545197228765 412.87543871646074L1202.7545197228765 412.87543871646074Q1201.2436075968212 412.87543871646074 1199.3409775121595 411.75624454901254Q1197.4103675733113 410.63705038156434 1194.6403620088772 409.2940173806265Q1191.8703564444427 407.92300452550245 1188.0650962751188 406.775830503868Q1184.2318562516089 405.60067662804744 1178.9996235187884 405.60067662804744L1178.9996235187884 405.60067662804744Q1174.4668871406232 405.60067662804744 1170.8295060964165 406.775830503868Q1167.19212505221 407.92300452550245 1164.6459583212652 409.9375540269092Q1162.0718117361344 411.95210352831594 1160.7007988810105 414.63816953019165Q1159.3577658800723 417.29625567788116 1159.3577658800723 420.42999934673605L1159.3577658800723 420.42999934673605Q1159.3577658800723 424.3471789328048 1161.624134069155 426.9772852263081Q1163.8905022582376 429.5794116656251 1167.611822865003 431.5100216044733Q1171.3331434717682 433.4126516891352 1176.0617388292367 434.8676041068179Q1180.7903341867054 436.32255652450056 1185.7987280860361 438.00134777567285Q1190.7791421311808 439.6521591726589 1195.5077374886496 441.6667086740657Q1200.2363328461179 443.68125817547246 1203.9576534528833 446.7030824275826Q1207.7069539138347 449.72490667969277 1209.9733221029173 454.11774378692695Q1212.239690292 458.48260103997495 1212.239690292 464.63816896094005L1212.239690292 464.63816896094005Q1212.239690292 471.68909221586375 1209.7215034152414 477.67678101171157Q1207.203316538483 483.6644698075595 1202.2508823475248 488.0573069147937Q1197.3264280107528 492.45014402202787 1190.1635853390842 494.96833089878635Q1183.028722521602 497.48651777554477 1173.655471369223 497.48651777554477L1173.655471369223 497.48651777554477Q1162.967167070093 497.48651777554477 1154.3213921265556 493.98903600226913Q1145.647637328832 490.51953408317974 1139.6039888246116 485.0914423710559L1139.6039888246116 485.0914423710559L1143.8289468067287 478.2363780954357Q1144.6403625781286 476.92132494868406 1145.759556745577 476.2218285940289Q1146.8507710588387 475.52233223937384 1148.669461580942 475.52233223937384L1148.669461580942 475.52233223937384Q1150.4881521030454 475.52233223937384 1152.5027016044523 476.92132494868406Q1154.517251105859 478.3482975121805 1157.371196232852 480.05506861753906Q1160.2531212140311 481.76183972289755 1164.338179925217 483.1608324322078Q1168.4232386364029 484.58780499570423 1174.5508267031819 484.58780499570423L1174.5508267031819 484.58780499570423Q1179.783059436002 484.58780499570423 1183.728218876257 483.2167921405802Q1187.6453984623258 481.87375913964235 1190.275504755829 479.55143124218733Q1192.877631195146 477.2291033447323 1194.1367246335253 474.2072790926222Q1195.3958180719046 471.185454840512 1195.3958180719046 467.771912629795L1195.3958180719046 467.771912629795Q1195.3958180719046 463.51897479349185 1193.129449882822 460.74896922905754Q1190.8630816937393 457.9789636646233 1187.141761086974 456.0203738715889Q1183.4204404802088 454.0617840785545 1178.6358854143677 452.6068316608719Q1173.8513303485265 451.1518792431892 1168.8709163033823 449.52904770038936Q1163.8905022582376 447.9062161575894 1159.1059471923966 445.86368680199644Q1154.3213921265556 443.79317759221726 1150.5720916656041 440.6594339233623Q1146.8507710588387 437.55367010869355 1144.584402869756 432.96497402215596Q1142.3180346806735 428.3762779356183 1142.3180346806735 421.82899205604633L1142.3180346806735 421.82899205604633Q1142.3180346806735 415.9812025311295 1144.7522819948733 410.6090705273781Q1147.1585494548872 405.20895866944056 1151.803205249797 401.1238999582546Q1156.419881190521 397.03884124706866 1163.1630260493964 394.63257378705504Q1169.9341507624579 392.2263063270414 1178.5799257059953 392.2263063270414L1178.5799257059953 392.2263063270414Q1188.6526732130292 392.2263063270414 1196.654911510284 395.3880298500826Q1204.6851296617247 398.54975337312374 1210.5049393324553 404.08976450199236L1210.5049393324553 404.08976450199236ZM1275.8938585656165 392.2263063270414L1275.8938585656165 392.2263063270414Q1285.0432708845055 392.2263063270414 1292.8216703482706 395.27611043333775Q1300.5720899578491 398.3538943938203 1306.1960406492767 404.14572421036473Q1311.8479711948899 409.9375540269092 1315.009694717931 418.4434296995155Q1318.1993980951584 426.9772852263081 1318.1993980951584 437.83346865055563L1318.1993980951584 437.83346865055563Q1318.1993980951584 442.0864064868588 1317.2760629070137 443.48539919616906Q1316.3807075730551 444.8843919054793 1313.8625206962965 444.8843919054793L1313.8625206962965 444.8843919054793L1245.9833944405632 444.8843919054793Q1246.1792534198667 454.56542145390625 1248.5855208798803 461.7282641255747Q1251.0197681940801 468.863126943057 1255.2447261761972 473.6476820088981Q1259.469684158314 478.4322370747391 1265.317473683231 480.8105246805666Q1271.1652632081477 483.1608324322078 1278.412045442375 483.1608324322078L1278.412045442375 483.1608324322078Q1285.1551903012503 483.1608324322078 1290.0516647838363 481.62194045196645Q1294.920159412236 480.05506861753906 1298.4456210396977 478.2363780954357Q1301.9710826671594 476.4176875733324 1304.349370272987 474.8508157389049Q1306.6996780246282 473.3119237586636 1308.4344289841729 473.3119237586636L1308.4344289841729 473.3119237586636Q1310.644837464883 473.3119237586636 1311.8479711948899 475.0186948640221L1311.8479711948899 475.0186948640221L1316.8843449484068 481.5659807435941Q1313.5547423002486 485.59507974640763 1308.9380663595246 488.56094429014536Q1304.2934105646145 491.5268088338831 1299.0052181234219 493.4574187727312Q1293.7170256822292 495.36004885739317 1288.0650951366156 496.31136389972414Q1282.4411444451885 497.2626789420551 1276.9011333163198 497.2626789420551L1276.9011333163198 497.2626789420551Q1266.3247484339345 497.2626789420551 1257.399174948535 493.70923746040705Q1248.5015813173218 490.12781612457286 1241.9822752919358 483.2167921405802Q1235.4909491207363 476.3337480107738 1231.881547930716 466.1490810869951Q1228.2441668865094 455.9644141632165 1228.2441668865094 442.7859028415139L1228.2441668865094 442.7859028415139Q1228.2441668865094 432.0975985423836 1231.5178098262954 422.83626680674973Q1234.7914527660814 413.5749350711159 1240.9470206870465 406.775830503868Q1247.0746087538253 399.9767259366202 1255.9442225308521 396.0875262047377Q1264.8138363078792 392.2263063270414 1275.8938585656165 392.2263063270414ZM1276.2855765242234 405.404817648744L1276.2855765242234 405.404817648744Q1263.3029241818242 405.404817648744 1255.8323031141074 412.9034185706469Q1248.3896619005768 420.42999934673605 1246.5709713784736 433.72043008518347L1246.5709713784736 433.72043008518347L1302.0830020839044 433.72043008518347Q1302.0830020839044 427.48092260165976 1300.376230978546 422.27666972302563Q1298.6414800190012 417.1003966985777 1295.339857225029 413.32311638344004Q1292.0102545768705 409.5458360683023 1287.2256995110297 407.47532685852315Q1282.4411444451885 405.404817648744 1276.2855765242234 405.404817648744ZM1388.5127716650918 441.8625676533691L1365.345452398914 441.8625676533691L1365.345452398914 495.86368623274484L1345.8994537395015 495.86368623274484L1345.8994537395015 351.51561848611306L1388.5127716650918 351.51561848611306Q1402.1949203621461 351.51561848611306 1412.323627577552 354.70532186334043Q1422.4523347929585 357.8670453863816 1429.083560235089 363.7148349112985Q1435.742765531406 369.56262443621534 1439.0164084711919 377.8166814211458Q1442.2900514109779 386.0707384060763 1442.2900514109779 396.2554053298549L1442.2900514109779 396.2554053298549Q1442.2900514109779 406.32815283688876 1438.764589783516 414.66614938437783Q1435.2391281560542 423.03212578605314 1428.440023588806 429.07577429027344Q1421.6409190215586 435.11942279449374 1411.5681715145247 438.5049851510245Q1401.4954240074908 441.8625676533691 1388.5127716650918 441.8625676533691L1388.5127716650918 441.8625676533691ZM1365.345452398914 366.932518142712L1365.345452398914 426.36172843421156L1388.5127716650918 426.36172843421156Q1396.8507682125808 426.36172843421156 1403.2581548212218 424.15131995350134Q1409.6655414298627 421.94091147279113 1413.9744389745383 417.9397923241638Q1418.3113163734 413.9666530297227 1420.5217248541103 408.4266419008541Q1422.7601131890067 402.88663077198555 1422.7601131890067 396.2554053298549L1422.7601131890067 396.2554053298549Q1422.7601131890067 382.43335736186964 1414.2262576622143 374.6829377522908Q1405.7203819896079 366.932518142712 1388.5127716650918 366.932518142712L1388.5127716650918 366.932518142712L1365.345452398914 366.932518142712ZM1482.0774040637616 495.86368623274484L1464.142317530404 495.86368623274484L1464.142317530404 393.8211580156551L1474.4109240167413 393.8211580156551Q1477.3488087062929 393.8211580156551 1478.4400230195547 394.9403521831033Q1479.559217187003 396.03156649636526 1479.95093514561 398.7735922066134L1479.95093514561 398.7735922066134L1481.1820487298028 414.66614938437783Q1486.4142814626232 404.00582493943375 1494.1087413638297 398.0181361435858Q1501.831181119222 392.00246749355176 1512.183727168118 392.00246749355176L1512.183727168118 392.00246749355176Q1516.4366650044212 392.00246749355176 1519.8502072151382 392.9817623900689Q1523.2637494258552 393.9330774323999 1526.2016341154067 395.63984853775844L1526.2016341154067 395.63984853775844L1523.8793062179516 409.04219869295065Q1523.1798098632967 411.56038556970907 1520.7455625490968 411.56038556970907L1520.7455625490968 411.56038556970907Q1519.3465698397865 411.56038556970907 1516.4366650044212 410.6090705273781Q1513.4987803148697 409.62977563086093 1508.2665475820493 409.62977563086093L1508.2665475820493 409.62977563086093Q1498.8932964296705 409.62977563086093 1492.5978292377745 415.0858471971709Q1486.3023620458785 420.51393890929467 1482.0774040637616 430.8944648123768L1482.0774040637616 430.8944648123768L1482.0774040637616 495.86368623274484ZM1586.6381191576097 392.2263063270414L1586.6381191576097 392.2263063270414Q1597.8020809779055 392.2263063270414 1606.8395738800496 395.94762693380665Q1615.8490869280076 399.66894754057193 1622.144554119904 406.52401181619217Q1628.4400213118001 413.3790760918124 1631.7976038141446 423.08808549442557Q1635.1831661706756 432.79709489703873 1635.1831661706756 444.80045234292066L1635.1831661706756 444.80045234292066Q1635.1831661706756 456.88774935136126 1631.7976038141446 466.54079904560194Q1628.4400213118001 476.2218285940289 1622.144554119904 483.0768928696492Q1615.8490869280076 489.9319571452694 1606.8395738800496 493.59731804366226Q1597.8020809779055 497.2626789420551 1586.6381191576097 497.2626789420551L1586.6381191576097 497.2626789420551Q1575.4461774831275 497.2626789420551 1566.4366644351694 493.59731804366226Q1557.4271513872118 489.9319571452694 1551.0757244869433 483.0768928696492Q1544.7242975866743 476.2218285940289 1541.3107553759573 466.54079904560194Q1537.8692333110544 456.88774935136126 1537.8692333110544 444.80045234292066L1537.8692333110544 444.80045234292066Q1537.8692333110544 432.79709489703873 1541.3107553759573 423.08808549442557Q1544.7242975866743 413.3790760918124 1551.0757244869433 406.52401181619217Q1557.4271513872118 399.66894754057193 1566.4366644351694 395.94762693380665Q1575.4461774831275 392.2263063270414 1586.6381191576097 392.2263063270414ZM1586.6381191576097 483.27275184895257L1586.6381191576097 483.27275184895257Q1601.7472404181603 483.27275184895257 1609.189881631691 473.1440446335464Q1616.6605026994075 463.0153374181402 1616.6605026994075 444.8843919054793L1616.6605026994075 444.8843919054793Q1616.6605026994075 426.6695068302598 1609.189881631691 416.48483990648117Q1601.7472404181603 406.32815283688876 1586.6381191576097 406.32815283688876L1586.6381191576097 406.32815283688876Q1578.9716391105894 406.32815283688876 1573.3476884191623 408.9302792762058Q1567.695757873549 411.56038556970907 1563.918477558411 416.48483990648117Q1560.1411972432734 421.43727409743946 1558.2665470127977 428.62809662329414Q1556.4198766365082 435.8189191491489 1556.4198766365082 444.8843919054793L1556.4198766365082 444.8843919054793Q1556.4198766365082 453.9498646618097 1558.2665470127977 461.1127073334782Q1560.1411972432734 468.27555000514667 1563.918477558411 473.1440446335464Q1567.695757873549 478.04051911613226 1573.3476884191623 480.64264555544935Q1578.9716391105894 483.27275184895257 1586.6381191576097 483.27275184895257Z " fill="#292826" transform="matrix(0.535108248374883,0,0,0.535108248374883,0,73.92399530492001)"/></g></svg>